<svg xmlns="http://www.w3.org/2000/svg" width="114" height="96" viewBox="0 0 114 96">
  <g id="Accessories" transform="translate(-609 -392)">
    <rect id="Rectangle_24" data-name="Rectangle 24" width="114" height="96" rx="8" transform="translate(609 392)" fill="#fff"/>
    <g id="earbuds" transform="translate(554.742 412.441)">
      <path id="Path_2079" data-name="Path 2079" d="M122.084,148.1H99.473a6.213,6.213,0,1,0,0,12.427l.706.63h20.647l1.259-.63a6.213,6.213,0,0,0,0-12.427Z" transform="translate(-0.001 -132.157)" fill="#6b7ed9"/>
      <path id="Path_2080" data-name="Path 2080" d="M98.471,154.313a6.232,6.232,0,0,1,6.214-6.213H99.473a6.213,6.213,0,1,0,0,12.427l.706.63h5.212l-.706-.63A6.232,6.232,0,0,1,98.471,154.313Z" transform="translate(-0.001 -132.157)" fill="#4d66d2"/>
      <path id="Path_2081" data-name="Path 2081" d="M294.717,22.472l.3-.315V11.44a1.117,1.117,0,0,1,1.29-1.108,12.322,12.322,0,0,0,1.984.159c.417,0,.826-.021,1.226-.061l.386-.6V.379l-.386-.318c-.4-.039-.809-.061-1.226-.061-4.479,0-8.11,2.349-8.11,5.246V22.157l.435.315Z" transform="translate(-175.722 0)" fill="#dbedff"/>
      <path id="Path_2082" data-name="Path 2082" d="M292.843,7.332a2.467,2.467,0,0,1,.638-1.664c1.667-1.827,4.186-2.249,6.421-2.174V.379l-.386-.318c-.4-.039-.809-.061-1.226-.061-4.479,0-8.11,2.349-8.11,5.246V22.157l.435.315h2.229V7.332Z" transform="translate(-175.722)" fill="#b5dcff"/>
      <path id="Path_2083" data-name="Path 2083" d="M132.45.061l-.318.6V9.833l.318.6c.4.039.809.061,1.226.061a12.322,12.322,0,0,0,1.984-.159,1.117,1.117,0,0,1,1.29,1.108V22.157l.283.384H141l.783-.384V5.246c0-2.9-3.631-5.246-8.11-5.246-.417,0-.826.021-1.226.061Z" transform="translate(-34.689 0)" fill="#dbedff"/>
      <path id="Path_2084" data-name="Path 2084" d="M139.37,61.732a1.1,1.1,0,0,0-1.247-1.086,15.815,15.815,0,0,1-5.989-.228v3.329l.318.6c.4.039.809.061,1.226.061a12.322,12.322,0,0,0,1.984-.159,1.117,1.117,0,0,1,1.29,1.108V76.071l.283.384h2.135Z" transform="translate(-34.69 -53.914)" fill="#b5dcff"/>
      <path id="Path_2085" data-name="Path 2085" d="M97.761.563A10.763,10.763,0,0,0,94.08,1.571a1.474,1.474,0,0,0-.822,1.323V8.6a1.474,1.474,0,0,0,.822,1.323,10.757,10.757,0,0,0,3.681,1.008V.563Z" transform="translate(0 -0.502)" fill="#8896e0"/>
      <path id="Path_2086" data-name="Path 2086" d="M97.761.563A10.763,10.763,0,0,0,94.08,1.571a1.474,1.474,0,0,0-.822,1.323V8.6a1.474,1.474,0,0,0,.822,1.323,10.757,10.757,0,0,0,3.681,1.008V.563Z" transform="translate(0 -0.502)" fill="#8896e0"/>
      <path id="Path_2087" data-name="Path 2087" d="M94.082,48.559a10.758,10.758,0,0,0,3.681,1.008V45.713a13.018,13.018,0,0,1-4.5-1.855v3.378A1.474,1.474,0,0,0,94.082,48.559Z" transform="translate(-0.002 -39.137)" fill="#6b7ed9"/>
      <path id="Path_2088" data-name="Path 2088" d="M380.59,1.571A10.761,10.761,0,0,0,376.909.563v10.37a10.757,10.757,0,0,0,3.681-1.008,1.474,1.474,0,0,0,.822-1.323V2.895A1.474,1.474,0,0,0,380.59,1.571Z" transform="translate(-253.116 -0.502)" fill="#8896e0"/>
      <path id="Path_2089" data-name="Path 2089" d="M381.413,4.64V2.9a1.474,1.474,0,0,0-.822-1.323A10.762,10.762,0,0,0,376.91.564V3.99A18.251,18.251,0,0,1,381.413,4.64Z" transform="translate(-253.116 -0.503)" fill="#6b7ed9"/>
      <path id="Path_2090" data-name="Path 2090" d="M290.179,205.818h4.836v6.5h-4.836Z" transform="translate(-175.722 -183.661)" fill="#b5dcff"/>
      <path id="Path_2091" data-name="Path 2091" d="M290.179,205.818h2.664v6.5h-2.664Z" transform="translate(-175.722 -183.661)" fill="#8bcaff"/>
      <path id="Path_2092" data-name="Path 2092" d="M176.893,205.818h4.836v6.5h-4.836Z" transform="translate(-74.632 -183.661)" fill="#b5dcff"/>
      <path id="Path_2093" data-name="Path 2093" d="M176.893,205.818h2.418v6.5h-2.418Z" transform="translate(-74.632 -183.661)" fill="#8bcaff"/>
      <path id="Path_2094" data-name="Path 2094" d="M126.565,263.536h-9.443l-6.111.538-6.576-.538H94.992a1.733,1.733,0,0,0-1.733,1.733v13.42a11.594,11.594,0,0,0,11.594,11.594H116.7A11.594,11.594,0,0,0,128.3,278.689v-13.42A1.733,1.733,0,0,0,126.565,263.536Z" transform="translate(-0.001 -235.166)" fill="#dbedff"/>
      <g id="Group_1432" data-name="Group 1432" transform="translate(93.258 28.37)">
        <path id="Path_2095" data-name="Path 2095" d="M98.1,278.69V265.27a1.733,1.733,0,0,1,1.733-1.733H94.992a1.733,1.733,0,0,0-1.733,1.733v13.42a11.594,11.594,0,0,0,11.594,11.594H109.7A11.594,11.594,0,0,1,98.1,278.69Z" transform="translate(-93.259 -263.537)" fill="#b5dcff"/>
      </g>
      <path id="Path_2096" data-name="Path 2096" d="M197.077,263.536v2.513a1.678,1.678,0,0,0,1.673,1.673h9.341a1.678,1.678,0,0,0,1.673-1.673v-2.513Z" transform="translate(-92.643 -235.166)" fill="#b5dcff"/>
      <path id="Path_2097" data-name="Path 2097" d="M202.732,266.049v-2.513h-5.656v2.513a1.678,1.678,0,0,0,1.673,1.673H204.4A1.678,1.678,0,0,1,202.732,266.049Z" transform="translate(-92.642 -235.166)" fill="#8bcaff"/>
    </g>
  </g>
</svg>
