<svg xmlns="http://www.w3.org/2000/svg" width="172.096" height="38.253" viewBox="0 0 172.096 38.253">
  <g id="EasyFinance" transform="translate(-605 -1318)">
    <rect id="LogoBG" width="172" height="38" transform="translate(605 1318)" fill="rgba(255,255,255,0)"/>
    <g id="Group_1400" data-name="Group 1400" transform="translate(605 1319.259)">
      <path id="Path_332" data-name="Path 332" d="M250.379,170.193a1.227,1.227,0,0,1,.932.39,1.155,1.155,0,0,1,.39.867,1.135,1.135,0,0,1-.39.888,1.306,1.306,0,0,1-.932.347H243.12a1.263,1.263,0,0,1-1.322-1.322V158.838a1.263,1.263,0,0,1,.368-.932,1.3,1.3,0,0,1,.953-.39h7.259a1.263,1.263,0,0,1,.932.368,1.256,1.256,0,0,1,.022,1.8,1.388,1.388,0,0,1-.953.325h-5.872v3.684h4.9a1.263,1.263,0,0,1,.932.368,1.256,1.256,0,0,1,.022,1.8,1.388,1.388,0,0,1-.953.325h-4.9v4.009Zm12.986-9.318a1.263,1.263,0,0,1,.932.368,1.29,1.29,0,0,1,.368.953v9.166a1.337,1.337,0,0,1-.368.953,1.363,1.363,0,0,1-1.864,0,1.388,1.388,0,0,1-.368-.932,4.543,4.543,0,0,1-1.474,1.083,4.43,4.43,0,0,1-1.929.433,5.007,5.007,0,0,1-2.709-.758A5.555,5.555,0,0,1,254.025,170a7.271,7.271,0,0,1,0-6.2,5.263,5.263,0,0,1,1.885-2.145,4.83,4.83,0,0,1,2.665-.78,4.9,4.9,0,0,1,1.95.39,4.961,4.961,0,0,1,1.539.953V162.2a1.263,1.263,0,0,1,.368-.932A1.227,1.227,0,0,1,263.365,160.875Zm-4.377,9.643a2.907,2.907,0,0,0,2.3-1.018,4.25,4.25,0,0,0,0-5.2,3.032,3.032,0,0,0-4.572,0,3.864,3.864,0,0,0-.888,2.6,3.925,3.925,0,0,0,.867,2.6A2.907,2.907,0,0,0,258.987,170.518Zm7.825.368a1.053,1.053,0,0,1-.2-.65,1.233,1.233,0,0,1,1.192-1.148,1.222,1.222,0,0,1,.867.412,4.625,4.625,0,0,0,1.344,1,4.113,4.113,0,0,0,1.712.325q1.69-.065,1.69-1.279a1.034,1.034,0,0,0-.585-.953,7.833,7.833,0,0,0-1.777-.65,16.1,16.1,0,0,1-2.059-.693,3.787,3.787,0,0,1-1.365-1.04,3,3,0,0,1-.563-1.907,2.858,2.858,0,0,1,.585-1.8,3.892,3.892,0,0,1,1.56-1.192,5.013,5.013,0,0,1,2.059-.433,6.294,6.294,0,0,1,2.21.412,3.844,3.844,0,0,1,1.734,1.214,1.205,1.205,0,0,1,.282.78,1.006,1.006,0,0,1-.412.823,1.092,1.092,0,0,1-.693.238,1.056,1.056,0,0,1-.78-.3,2.734,2.734,0,0,0-1.018-.758,3.258,3.258,0,0,0-1.387-.282q-1.647,0-1.647,1.192a1.056,1.056,0,0,0,.3.78,2.306,2.306,0,0,0,.758.455q.477.152,1.322.39a14.331,14.331,0,0,1,1.95.672,3.347,3.347,0,0,1,1.322,1.062,3.042,3.042,0,0,1,.542,1.885,2.935,2.935,0,0,1-.628,1.864,4.007,4.007,0,0,1-1.625,1.192,5.132,5.132,0,0,1-2.015.412,7.339,7.339,0,0,1-2.665-.477A4.429,4.429,0,0,1,266.812,170.886Zm19.728-9.795a1.227,1.227,0,0,1,.932.39,1.263,1.263,0,0,1,.368.932v9.21a5.07,5.07,0,0,1-1.517,4.1,6.014,6.014,0,0,1-4.052,1.3,9.223,9.223,0,0,1-1.517-.13,5.31,5.31,0,0,1-1.235-.3q-1.062-.455-1.062-1.257a1.114,1.114,0,0,1,.065-.347,1.437,1.437,0,0,1,.433-.737,1.152,1.152,0,0,1,.693-.238,1.293,1.293,0,0,1,.412.065q.152.065.52.217a5.115,5.115,0,0,0,.8.238,3.648,3.648,0,0,0,.888.108,3.208,3.208,0,0,0,2.254-.672,2.893,2.893,0,0,0,.737-2.254v-.217a4.226,4.226,0,0,1-3.51,1.409,3.8,3.8,0,0,1-1.994-.52,3.677,3.677,0,0,1-1.344-1.474,4.78,4.78,0,0,1-.477-2.167v-6.328a1.263,1.263,0,0,1,.368-.932,1.308,1.308,0,0,1,1.864,0,1.263,1.263,0,0,1,.368.932v5.547a2.774,2.774,0,0,0,.585,1.972,2.43,2.43,0,0,0,1.755.585,2.255,2.255,0,0,0,1.734-.65,2.686,2.686,0,0,0,.628-1.907v-5.547a1.263,1.263,0,0,1,.368-.932A1.227,1.227,0,0,1,286.541,161.091Zm7.041-1.083v3.814h4.681a1.263,1.263,0,0,1,.932.368,1.159,1.159,0,0,1,.39.91,1.133,1.133,0,0,1-.39.845,1.263,1.263,0,0,1-.932.368h-4.681v5.049a1.263,1.263,0,0,1-.412.953,1.31,1.31,0,0,1-.932.368,1.393,1.393,0,0,1-1-.368,1.29,1.29,0,0,1-.368-.953V158.838a1.263,1.263,0,0,1,.368-.932,1.3,1.3,0,0,1,.953-.39h7.043a1.263,1.263,0,0,1,.932.368,1.159,1.159,0,0,1,.39.91,1.133,1.133,0,0,1-.39.845,1.263,1.263,0,0,1-.932.368Zm11.691,11.355a1.337,1.337,0,0,1-.368.953,1.363,1.363,0,0,1-1.864,0,1.337,1.337,0,0,1-.368-.953v-8.95a1.263,1.263,0,0,1,.368-.932,1.308,1.308,0,0,1,1.864,0,1.263,1.263,0,0,1,.368.932Zm-1.322-11.68a1.722,1.722,0,0,1-1.04-.238,1.018,1.018,0,0,1-.3-.845v-.412a.982.982,0,0,1,.325-.845,2.436,2.436,0,0,1,2.1,0,1.018,1.018,0,0,1,.3.845v.412a1.01,1.01,0,0,1-.325.867A1.91,1.91,0,0,1,303.95,159.683Zm10.192,1.192A3.344,3.344,0,0,1,317.2,162.2a6.607,6.607,0,0,1,.845,3.619v5.547a1.337,1.337,0,0,1-.368.953,1.363,1.363,0,0,1-1.864,0,1.337,1.337,0,0,1-.368-.953v-5.547a3.071,3.071,0,0,0-.5-1.864,1.966,1.966,0,0,0-1.712-.693,2.62,2.62,0,0,0-1.972.737,2.466,2.466,0,0,0-.715,1.82v5.547a1.337,1.337,0,0,1-.368.953,1.363,1.363,0,0,1-1.864,0,1.337,1.337,0,0,1-.368-.953v-8.95a1.263,1.263,0,0,1,.368-.932,1.308,1.308,0,0,1,1.864,0,1.263,1.263,0,0,1,.368.932v.368a5.28,5.28,0,0,1,1.517-1.344A4.016,4.016,0,0,1,314.142,160.875Zm16.094,0a1.263,1.263,0,0,1,.932.368,1.29,1.29,0,0,1,.368.953v9.166a1.337,1.337,0,0,1-.368.953,1.363,1.363,0,0,1-1.864,0,1.388,1.388,0,0,1-.368-.932,4.543,4.543,0,0,1-1.474,1.083,4.43,4.43,0,0,1-1.929.433,5.007,5.007,0,0,1-2.709-.758A5.556,5.556,0,0,1,320.9,170a7.271,7.271,0,0,1,0-6.2,5.263,5.263,0,0,1,1.885-2.145,4.83,4.83,0,0,1,2.665-.78,4.9,4.9,0,0,1,1.95.39,4.961,4.961,0,0,1,1.539.953V162.2a1.263,1.263,0,0,1,.368-.932A1.227,1.227,0,0,1,330.237,160.875Zm-4.377,9.643a2.907,2.907,0,0,0,2.3-1.018,4.25,4.25,0,0,0,0-5.2,3.032,3.032,0,0,0-4.572,0,3.863,3.863,0,0,0-.889,2.6,3.925,3.925,0,0,0,.867,2.6A2.907,2.907,0,0,0,325.859,170.518Zm14.693-9.643a3.344,3.344,0,0,1,3.055,1.322,6.607,6.607,0,0,1,.845,3.619v5.547a1.337,1.337,0,0,1-.368.953,1.363,1.363,0,0,1-1.864,0,1.337,1.337,0,0,1-.368-.953v-5.547a3.071,3.071,0,0,0-.5-1.864,1.966,1.966,0,0,0-1.712-.693,2.62,2.62,0,0,0-1.972.737,2.466,2.466,0,0,0-.715,1.82v5.547a1.337,1.337,0,0,1-.368.953,1.363,1.363,0,0,1-1.864,0,1.337,1.337,0,0,1-.368-.953v-8.95a1.263,1.263,0,0,1,.368-.932,1.308,1.308,0,0,1,1.864,0,1.263,1.263,0,0,1,.368.932v.368a5.281,5.281,0,0,1,1.517-1.344A4.016,4.016,0,0,1,340.552,160.875Zm11.76,0a6.457,6.457,0,0,1,2.969.585,1.7,1.7,0,0,1,1.127,1.517,1.354,1.354,0,0,1-.282.845.9.9,0,0,1-.737.347,1.539,1.539,0,0,1-.563-.087,3.438,3.438,0,0,1-.433-.26,2.2,2.2,0,0,0-.39-.282,2.725,2.725,0,0,0-.65-.2,3.405,3.405,0,0,0-.672-.087,3.293,3.293,0,0,0-2.557,1.018,4.162,4.162,0,0,0,.022,5.222,3.087,3.087,0,0,0,2.384,1.018,3.687,3.687,0,0,0,1.582-.26,2.979,2.979,0,0,0,.347-.217,2.443,2.443,0,0,1,.433-.26,1.171,1.171,0,0,1,.477-.087,1.064,1.064,0,0,1,.845.347,1.2,1.2,0,0,1-.282,1.864,4.869,4.869,0,0,1-1.6.737,8.384,8.384,0,0,1-2.124.26,5.544,5.544,0,0,1-2.947-.78,5.287,5.287,0,0,1-1.95-2.145,6.784,6.784,0,0,1-.693-3.077,6.626,6.626,0,0,1,.715-3.12,5.341,5.341,0,0,1,2.037-2.124A5.616,5.616,0,0,1,352.313,160.875Zm16.5,5.742a1.113,1.113,0,0,1-.412.845,1.379,1.379,0,0,1-.91.325h-7.151a3.314,3.314,0,0,0,1.192,2.015,3.364,3.364,0,0,0,2.1.715,4.974,4.974,0,0,0,1.387-.152,4.1,4.1,0,0,0,.78-.347q.3-.2.412-.26a1.653,1.653,0,0,1,.737-.2,1.064,1.064,0,0,1,.78.325,1.039,1.039,0,0,1,.325.758,1.352,1.352,0,0,1-.607,1.062,5.177,5.177,0,0,1-1.625.845,6.35,6.35,0,0,1-2.059.347,6.453,6.453,0,0,1-3.185-.758,5.334,5.334,0,0,1-2.08-2.08,6.16,6.16,0,0,1-.737-3.012,6.644,6.644,0,0,1,.78-3.272,5.46,5.46,0,0,1,2.059-2.145,5.263,5.263,0,0,1,2.73-.758,5.008,5.008,0,0,1,2.687.78,5.8,5.8,0,0,1,2.037,2.1A5.651,5.651,0,0,1,368.817,166.617Zm-5.482-3.359a2.69,2.69,0,0,0-2.969,2.362h5.677v-.152a2.24,2.24,0,0,0-.888-1.56A2.812,2.812,0,0,0,363.334,163.258Z" transform="translate(-196.721 -148.884)" fill="#fff"/>
      <path id="Path_333" data-name="Path 333" d="M217.085,154.5a2.246,2.246,0,1,0-1.588-.658A2.248,2.248,0,0,0,217.085,154.5Zm10.645,11.118c0-.08,0-.161-.005-.241,0-.1,0-.2-.012-.307,0-.07-.006-.142-.01-.212-.006-.106-.014-.212-.022-.318-.005-.07-.011-.142-.017-.214-.009-.1-.019-.2-.029-.3-.009-.08-.018-.162-.028-.242s-.02-.167-.033-.259-.027-.2-.042-.291c-.01-.064-.02-.129-.031-.193-.02-.122-.041-.244-.063-.365l-.022-.117v-.014c-.027-.146-.057-.293-.088-.439v-.022c-.055-.254-.114-.506-.179-.757l-.051-.189-.017-.05a18.008,18.008,0,0,0-2.731-5.677l-.115-.157a4.106,4.106,0,0,0-1.225-1.013,2.208,2.208,0,0,0-2.443,3.472l-.007.006a14.079,14.079,0,0,1,2.654,6.8c.006.062.015.126.021.193a13.833,13.833,0,0,1-1.607,7.7,13.371,13.371,0,0,1-2.274,2.979,13.746,13.746,0,0,1-5.9,3.432c-.269.074-.541.139-.815.193a13.567,13.567,0,0,1-8.66-1.032l-.013-.005c-.086-.042-.172-.084-.257-.128l-.06-.031-.223-.118-.076-.042-.216-.121-.061-.039c-.079-.046-.158-.1-.237-.14l-.011-.007q-.551-.337-1.078-.735a13.6,13.6,0,0,1-2.3-2.2l-.006-.007c-.063-.077-.125-.154-.185-.232l-.054-.07-.131-.171-.1-.127-.085-.118c-.042-.059-.085-.117-.125-.177l-.046-.075c-.051-.074-.1-.148-.148-.222l-.022-.033q-.083-.129-.163-.257v-.008q-.172-.282-.331-.571c-.051-.094-.1-.19-.151-.284l-.019-.036c-.042-.083-.084-.167-.125-.252l-.049-.1-.087-.184c-.029-.059-.06-.129-.1-.211l-.033-.076a13.482,13.482,0,0,1,2.079-14.012,13.851,13.851,0,0,1,3.635-3.072,13.1,13.1,0,0,1,2.831-1.141v-.009a2.243,2.243,0,0,0,.386-.165c.229-.059.461-.108.694-.154a13,13,0,0,1,3.819-.176v-.009a2.205,2.205,0,0,0,1.55-3.9,4.052,4.052,0,0,0-1.157-.509c-.29-.029-.229-.016-.523-.032a18.03,18.03,0,0,0-5.938.684h-.048c-.284.078-.22.067-.5.157q-.634.206-1.249.46l-.022.009c-.145.06-.291.122-.435.186l-.081.036q-.194.085-.381.176l-.116.056c-.118.057-.235.116-.351.175l-.128.067q-.175.091-.347.187l-.116.064c-.125.07-.247.142-.37.215l-.074.051c-.143.086-.285.174-.426.265h-.007a17.786,17.786,0,0,0-7.547,19.854c.014.054.03.107.045.162l.006.02a17.908,17.908,0,0,0,1.1,2.877,17.53,17.53,0,0,0,3.659,5.032,18.079,18.079,0,0,0,2.846,2.226l.018.012c.114.072.228.144.344.212a17.763,17.763,0,0,0,7.7,2.472h.046c.123.01.246.018.369.025l.119.007.3.013.174.005h.915l.233-.008.209-.008.265-.015.169-.012c.11-.008.219-.018.33-.028l.1-.009a17.916,17.916,0,0,0,5.765-1.57c.129-.059.256-.12.38-.182a17.879,17.879,0,0,0,9.934-15.015v-.1c.006-.135.013-.269.016-.4v-.772" transform="translate(-192 -148)" fill="#3be5bf"/>
      <path id="Path_334" data-name="Path 334" d="M208.747,172.71a1.434,1.434,0,0,1-1.548-1.161c-.1-.34-.183-.684-.276-1.026-.157-.593.06-.871.683-.877l8.543-.039h.439c.262-1.039.519-2.057.774-3.075.055-.218.108-.434.159-.654.117-.535-.1-.819-.653-.82h-8.506c-.42,0-.678-.215-.687-.551s.255-.57.666-.57c2.883,0,5.766-.008,8.648,0a1.654,1.654,0,0,1,1.652,2.032c-.326,1.439-.706,2.866-1.065,4.3-.092.36-.349.465-.7.465q-3.314,0-6.628.017h-2.106c.05.193.1.334.121.483.046.291.213.379.495.377,1.808-.008,3.616,0,5.419,0h2.129c.449,0,.707.216.7.57s-.258.545-.715.545Zm-2.337-4.18c-.281-1.424-.2-1.136-.484-2.561-.113-.581-.23-1.161-.334-1.742a.42.42,0,0,0-.142-.293.4.4,0,0,0-.144-.082.409.409,0,0,0-.164-.02c-.553-.024-1.108-.072-1.66-.119a.591.591,0,0,1-.234-.04.582.582,0,0,1-.2-.131.562.562,0,0,1-.13-.2.5.5,0,0,1,.032-.459.6.6,0,0,1,.156-.179.586.586,0,0,1,.451-.109c.305.016.611.043.917.066s.589.039.883.066a1.374,1.374,0,0,1,1.288,1.129c.41,2.06.455,2.408.85,4.471a.561.561,0,0,1-.226.609.567.567,0,0,1-.212.087.535.535,0,0,1-.107.011.577.577,0,0,1-.541-.506Z" transform="translate(-193.056 -149.417)" fill="#fff"/>
      <path id="Path_2076" data-name="Path 2076" d="M330.052,181.712a1.926,1.926,0,0,1,1.056.3,2.044,2.044,0,0,1,.739.833,2.576,2.576,0,0,1,.275,1.2,2.629,2.629,0,0,1-.275,1.211,2.03,2.03,0,0,1-.739.842,1.9,1.9,0,0,1-1.039.3,1.809,1.809,0,0,1-.833-.2,1.939,1.939,0,0,1-.627-.49v.249a.4.4,0,0,1-.12.292.38.38,0,0,1-.292.12.414.414,0,0,1-.292-.112.427.427,0,0,1-.112-.3v-5.591a.4.4,0,0,1,.112-.292.415.415,0,0,1,.584,0,.4.4,0,0,1,.12.292v2.1a1.723,1.723,0,0,1,.6-.532A1.689,1.689,0,0,1,330.052,181.712Zm-.095,3.933a1.28,1.28,0,0,0,.713-.206,1.41,1.41,0,0,0,.49-.575,1.834,1.834,0,0,0,.18-.816,1.78,1.78,0,0,0-.18-.807,1.349,1.349,0,0,0-.49-.567,1.28,1.28,0,0,0-.713-.206,1.3,1.3,0,0,0-.721.206,1.416,1.416,0,0,0-.5.567,1.822,1.822,0,0,0-.172.807,1.879,1.879,0,0,0,.172.816,1.483,1.483,0,0,0,.5.575A1.3,1.3,0,0,0,329.957,185.645Zm6.461-3.873a.381.381,0,0,1,.292.12.4.4,0,0,1,.12.292v3.71a2.05,2.05,0,0,1-.593,1.606,2.252,2.252,0,0,1-1.563.532,3.253,3.253,0,0,1-.627-.06,1.89,1.89,0,0,1-.507-.163c-.212-.1-.318-.229-.318-.4a.45.45,0,0,1,.163-.335A.33.33,0,0,1,333.6,187a.326.326,0,0,1,.129.026,5.081,5.081,0,0,0,.472.189,1.532,1.532,0,0,0,.481.069,1.192,1.192,0,0,0,1.331-1.366v-.172a1.554,1.554,0,0,1-.6.481,1.919,1.919,0,0,1-.833.172,1.416,1.416,0,0,1-1.117-.455,1.755,1.755,0,0,1-.4-1.194v-2.568a.394.394,0,0,1,.112-.292.415.415,0,0,1,.584,0,.4.4,0,0,1,.12.292v2.353a1.223,1.223,0,0,0,.249.842.986.986,0,0,0,.756.266,1.11,1.11,0,0,0,.807-.309,1.064,1.064,0,0,0,.318-.8v-2.353a.394.394,0,0,1,.112-.292A.381.381,0,0,1,336.418,181.772ZM341.2,185.9a.4.4,0,0,1-.12.292.381.381,0,0,1-.292.12.4.4,0,0,1-.292-.12.412.412,0,0,1-.112-.292v-3.719a.412.412,0,0,1,.112-.292.4.4,0,0,1,.292-.12.381.381,0,0,1,.292.12.4.4,0,0,1,.12.292Zm-.412-4.7a.593.593,0,0,1-.361-.086.378.378,0,0,1-.1-.292v-.137a.346.346,0,0,1,.112-.292.617.617,0,0,1,.361-.086.506.506,0,0,1,.344.094.338.338,0,0,1,.112.283v.137a.348.348,0,0,1-.112.292A.579.579,0,0,1,340.785,181.205Zm3.878.507q1.546,0,1.546,1.855V185.9a.4.4,0,0,1-.12.292.381.381,0,0,1-.292.12.4.4,0,0,1-.292-.12.412.412,0,0,1-.112-.292v-2.327a1.288,1.288,0,0,0-.232-.807.9.9,0,0,0-.756-.3,1.287,1.287,0,0,0-.627.155,1.146,1.146,0,0,0-.438.4,1.022,1.022,0,0,0-.155.55V185.9a.4.4,0,0,1-.12.292.381.381,0,0,1-.292.12.394.394,0,0,1-.292-.112.423.423,0,0,1-.112-.3v-3.676a.412.412,0,0,1,.112-.292.4.4,0,0,1,.292-.12.381.381,0,0,1,.292.12.4.4,0,0,1,.12.292v.3a1.81,1.81,0,0,1,.618-.575A1.648,1.648,0,0,1,344.663,181.712Zm5.393-1.408a2.35,2.35,0,0,1,1.383.4,2.494,2.494,0,0,1,.867,1.091,3.8,3.8,0,0,1,.292,1.512,3.881,3.881,0,0,1-.292,1.529,2.5,2.5,0,0,1-.867,1.082,2.383,2.383,0,0,1-1.383.4h-2.113a.411.411,0,0,1-.412-.412v-5.187a.411.411,0,0,1,.412-.412Zm-.086,5.222a1.5,1.5,0,0,0,1.314-.618,2.727,2.727,0,0,0,.438-1.6,2.676,2.676,0,0,0-.447-1.589,1.488,1.488,0,0,0-1.305-.627h-1.589v4.432Zm7.632-1.632a.385.385,0,0,1-.129.266.421.421,0,0,1-.283.1h-3.023a1.5,1.5,0,0,0,.472,1,1.477,1.477,0,0,0,1.022.378,1.6,1.6,0,0,0,.67-.12,1.665,1.665,0,0,0,.455-.309.485.485,0,0,1,.249-.077.312.312,0,0,1,.24.1.329.329,0,0,1,.1.24.425.425,0,0,1-.172.326,2.019,2.019,0,0,1-.661.421,2.176,2.176,0,0,1-.842.172,2.509,2.509,0,0,1-1.228-.292,2.071,2.071,0,0,1-.816-.816,2.452,2.452,0,0,1-.283-1.185,2.615,2.615,0,0,1,.292-1.262,2.182,2.182,0,0,1,.782-.842,2.021,2.021,0,0,1,2.078-.009,2.154,2.154,0,0,1,.773.782A2.23,2.23,0,0,1,357.6,183.893Zm-2.1-1.426a1.259,1.259,0,0,0-1.3,1.108h2.534v-.069a1.044,1.044,0,0,0-.412-.747A1.272,1.272,0,0,0,355.5,182.468Zm6.3,3.212a.346.346,0,0,1,.094.24.412.412,0,0,1-.129.3.4.4,0,0,1-.618-.06l-1.151-1.451-1.134,1.451a.393.393,0,0,1-.146.129.4.4,0,0,1-.18.043.431.431,0,0,1-.275-.1.341.341,0,0,1-.12-.258.364.364,0,0,1,.094-.258l1.288-1.606-1.323-1.666a.386.386,0,0,1-.086-.24.4.4,0,0,1,.12-.292.417.417,0,0,1,.292-.12.4.4,0,0,1,.335.172l1.177,1.486,1.108-1.477a.387.387,0,0,1,.326-.18.374.374,0,0,1,.275.112.329.329,0,0,1,.112.249.379.379,0,0,1-.094.266l-1.271,1.606Z" transform="translate(-189.83 -151.039)" fill="#fff"/>
    </g>
  </g>
</svg>
