<svg xmlns="http://www.w3.org/2000/svg" width="114" height="96" viewBox="0 0 114 96">
  <g id="Mobile" transform="translate(-396 -392)">
    <rect id="Rectangle_23" data-name="Rectangle 23" width="114" height="96" rx="8" transform="translate(396 392)" fill="#fff"/>
    <g id="iphone" transform="translate(381.68 412)">
      <path id="Path_2098" data-name="Path 2098" d="M54.476,0A5.161,5.161,0,0,0,49.32,5.156V49.962a5.161,5.161,0,0,0,5.156,5.155H69.308V0Z" fill="#efefef"/>
      <path id="Path_2099" data-name="Path 2099" d="M52.391,49.962V5.156A5.161,5.161,0,0,1,57.547,0H54.476A5.161,5.161,0,0,0,49.32,5.156V49.962a5.161,5.161,0,0,0,5.156,5.155h3.071A5.161,5.161,0,0,1,52.391,49.962Z" fill="#ddd"/>
      <path id="Path_2100" data-name="Path 2100" d="M80.455,26.716h0a2.614,2.614,0,0,0-2.606,2.606v6.1a2.614,2.614,0,0,0,2.606,2.606h0a2.614,2.614,0,0,0,2.606-2.606v-6.1A2.614,2.614,0,0,0,80.455,26.716Z" transform="translate(-25.458 -23.84)" fill="#535454"/>
      <path id="Path_2101" data-name="Path 2101" d="M80.455,35.41v-6.1a2.611,2.611,0,0,1,1.3-2.254,2.608,2.608,0,0,0-3.909,2.254v6.1a2.608,2.608,0,0,0,3.909,2.254A2.612,2.612,0,0,1,80.455,35.41Z" transform="translate(-25.458 -23.828)" fill="#444443"/>
      <path id="Path_2102" data-name="Path 2102" d="M211.616,0H192.262a5.161,5.161,0,0,0-5.156,5.156V49.962a5.161,5.161,0,0,0,5.156,5.156h19.355a5.161,5.161,0,0,0,5.156-5.156V5.156A5.161,5.161,0,0,0,211.616,0Z" transform="translate(-122.953)" fill="#535454"/>
      <path id="Path_2103" data-name="Path 2103" d="M189.962,49.962V5.156A5.161,5.161,0,0,1,195.117,0h-2.856a5.161,5.161,0,0,0-5.156,5.156V49.962a5.161,5.161,0,0,0,5.156,5.156h2.856A5.161,5.161,0,0,1,189.962,49.962Z" transform="translate(-122.953)" fill="#444443"/>
      <path id="Path_2104" data-name="Path 2104" d="M237.593,73.639a2.3,2.3,0,0,1-2.3,2.3H215.939a2.3,2.3,0,0,1-2.3-2.3V28.832a2.3,2.3,0,0,1,2.3-2.3h2.412a.86.86,0,0,1,.86.86v.546a1.335,1.335,0,0,0,1.331,1.331H230.69a1.335,1.335,0,0,0,1.331-1.331V27.15a.617.617,0,0,1,.617-.617h2.656a2.3,2.3,0,0,1,2.3,2.3Z" transform="translate(-146.631 -23.677)" fill="#a4d9f4"/>
      <path id="Path_2105" data-name="Path 2105" d="M216.383,73.634V28.827a2.3,2.3,0,0,1,2.095-2.289c-.134-.02.009-.006-2.539-.01a2.3,2.3,0,0,0-2.3,2.3V73.634a2.3,2.3,0,0,0,2.3,2.3h2.743A2.3,2.3,0,0,1,216.383,73.634Z" transform="translate(-146.631 -23.672)" fill="#7cc9e8"/>
      <g id="Group_1433" data-name="Group 1433" transform="translate(54.166 2.024)">
        <path id="Path_2106" data-name="Path 2106" d="M313.095,20.471h-4.343a.832.832,0,0,1,0-1.664h4.343a.832.832,0,0,1,0,1.664Z" transform="translate(-284.927 -18.806)" fill="#666"/>
        <path id="Path_2107" data-name="Path 2107" d="M284,20.324a.831.831,0,1,1,.623.124A1.339,1.339,0,0,1,284,20.324Z" transform="translate(-263.253 -18.8)" fill="#666"/>
        <path id="Path_2108" data-name="Path 2108" d="M94.7,45.777a.832.832,0,1,1,.624.123A1.06,1.06,0,0,1,94.7,45.777Z" transform="translate(-94.332 -41.515)" fill="#666"/>
      </g>
      <path id="Path_2109" data-name="Path 2109" d="M94.7,73.065a.832.832,0,1,1,1.05-.1A.932.932,0,0,1,94.7,73.065Z" transform="translate(-40.167 -63.841)" fill="#666"/>
      <path id="Path_2110" data-name="Path 2110" d="M94.707,100.339a.832.832,0,1,1,1.05-.1A.858.858,0,0,1,94.707,100.339Z" transform="translate(-40.171 -88.177)" fill="#666"/>
      <path id="Path_2111" data-name="Path 2111" d="M241.832,89.562h-2.226a.372.372,0,0,1-.371-.371V86.965a.372.372,0,0,1,.371-.371h2.226a.372.372,0,0,1,.371.371v2.226A.372.372,0,0,1,241.832,89.562Z" transform="translate(-169.47 -77.272)" fill="#70b5e8"/>
      <path id="Path_2112" data-name="Path 2112" d="M290.509,89.562h-2.226a.372.372,0,0,1-.371-.371V86.965a.372.372,0,0,1,.371-.371h2.226a.372.372,0,0,1,.371.371v2.226A.372.372,0,0,1,290.509,89.562Z" transform="translate(-212.907 -77.272)" fill="#efefef"/>
      <path id="Path_2113" data-name="Path 2113" d="M339.185,89.562h-2.226a.372.372,0,0,1-.371-.371V86.965a.372.372,0,0,1,.371-.371h2.226a.372.372,0,0,1,.371.371v2.226A.372.372,0,0,1,339.185,89.562Z" transform="translate(-256.343 -77.272)" fill="#92b620"/>
      <path id="Path_2114" data-name="Path 2114" d="M387.861,89.562h-2.226a.372.372,0,0,1-.371-.371V86.965a.372.372,0,0,1,.371-.371h2.226a.372.372,0,0,1,.371.371v2.226A.372.372,0,0,1,387.861,89.562Z" transform="translate(-299.779 -77.272)" fill="#898989"/>
      <path id="Path_2115" data-name="Path 2115" d="M241.832,138.719h-2.226a.372.372,0,0,1-.371-.371v-2.226a.372.372,0,0,1,.371-.371h2.226a.372.372,0,0,1,.371.371v2.226A.372.372,0,0,1,241.832,138.719Z" transform="translate(-169.47 -121.137)" fill="#92b620"/>
      <path id="Path_2116" data-name="Path 2116" d="M290.509,138.719h-2.226a.372.372,0,0,1-.371-.371v-2.226a.372.372,0,0,1,.371-.371h2.226a.372.372,0,0,1,.371.371v2.226A.372.372,0,0,1,290.509,138.719Z" transform="translate(-212.907 -121.137)" fill="#898989"/>
      <path id="Path_2117" data-name="Path 2117" d="M339.185,138.719h-2.226a.372.372,0,0,1-.371-.371v-2.226a.372.372,0,0,1,.371-.371h2.226a.372.372,0,0,1,.371.371v2.226A.372.372,0,0,1,339.185,138.719Z" transform="translate(-256.343 -121.137)" fill="#70b5e8"/>
      <path id="Path_2118" data-name="Path 2118" d="M387.861,138.719h-2.226a.372.372,0,0,1-.371-.371v-2.226a.372.372,0,0,1,.371-.371h2.226a.372.372,0,0,1,.371.371v2.226A.372.372,0,0,1,387.861,138.719Z" transform="translate(-299.779 -121.137)" fill="#f94a46"/>
      <path id="Path_2119" data-name="Path 2119" d="M241.832,188.514h-2.226a.372.372,0,0,1-.371-.371v-2.226a.372.372,0,0,1,.371-.371h2.226a.372.372,0,0,1,.371.371v2.226A.372.372,0,0,1,241.832,188.514Z" transform="translate(-169.47 -165.572)" fill="#dda36f"/>
      <path id="Path_2120" data-name="Path 2120" d="M290.509,188.514h-2.226a.372.372,0,0,1-.371-.371v-2.226a.372.372,0,0,1,.371-.371h2.226a.372.372,0,0,1,.371.371v2.226A.372.372,0,0,1,290.509,188.514Z" transform="translate(-212.907 -165.572)" fill="#f9d698"/>
      <path id="Path_2121" data-name="Path 2121" d="M339.185,188.514h-2.226a.372.372,0,0,1-.371-.371v-2.226a.372.372,0,0,1,.371-.371h2.226a.372.372,0,0,1,.371.371v2.226A.372.372,0,0,1,339.185,188.514Z" transform="translate(-256.343 -165.572)" fill="#898989"/>
      <path id="Path_2122" data-name="Path 2122" d="M387.861,188.514h-2.226a.372.372,0,0,1-.371-.371v-2.226a.372.372,0,0,1,.371-.371h2.226a.372.372,0,0,1,.371.371v2.226A.372.372,0,0,1,387.861,188.514Z" transform="translate(-299.779 -165.572)" fill="#f9d698"/>
      <g id="Group_1434" data-name="Group 1434" transform="translate(69.765 25.266)">
        <path id="Path_2123" data-name="Path 2123" d="M241.832,237.67h-2.226a.372.372,0,0,1-.371-.371v-2.226a.372.372,0,0,1,.371-.371h2.226a.372.372,0,0,1,.371.371V237.3A.372.372,0,0,1,241.832,237.67Z" transform="translate(-239.235 -234.702)" fill="#70b5e8"/>
        <path id="Path_2124" data-name="Path 2124" d="M290.509,237.67h-2.226a.372.372,0,0,1-.371-.371v-2.226a.372.372,0,0,1,.371-.371h2.226a.372.372,0,0,1,.371.371V237.3A.372.372,0,0,1,290.509,237.67Z" transform="translate(-282.672 -234.702)" fill="#70b5e8"/>
      </g>
      <path id="Path_2125" data-name="Path 2125" d="M339.185,237.67h-2.226a.372.372,0,0,1-.371-.371v-2.226a.372.372,0,0,1,.371-.371h2.226a.372.372,0,0,1,.371.371V237.3A.372.372,0,0,1,339.185,237.67Z" transform="translate(-256.343 -209.436)" fill="#f94a46"/>
      <path id="Path_2126" data-name="Path 2126" d="M241.832,286.826h-2.226a.372.372,0,0,1-.371-.371v-2.226a.372.372,0,0,1,.371-.371h2.226a.372.372,0,0,1,.371.371v2.226A.372.372,0,0,1,241.832,286.826Z" transform="translate(-169.47 -253.3)" fill="#efefef"/>
      <path id="Path_2127" data-name="Path 2127" d="M290.509,286.826h-2.226a.372.372,0,0,1-.371-.371v-2.226a.372.372,0,0,1,.371-.371h2.226a.372.372,0,0,1,.371.371v2.226A.372.372,0,0,1,290.509,286.826Z" transform="translate(-212.907 -253.3)" fill="#92b620"/>
      <path id="Path_2128" data-name="Path 2128" d="M339.185,286.826h-2.226a.372.372,0,0,1-.371-.371v-2.226a.372.372,0,0,1,.371-.371h2.226a.372.372,0,0,1,.371.371v2.226A.372.372,0,0,1,339.185,286.826Z" transform="translate(-256.343 -253.3)" fill="#898989"/>
      <path id="Path_2129" data-name="Path 2129" d="M387.861,237.67h-2.226a.372.372,0,0,1-.371-.371v-2.226a.372.372,0,0,1,.371-.371h2.226a.372.372,0,0,1,.371.371V237.3A.372.372,0,0,1,387.861,237.67Z" transform="translate(-299.779 -209.436)" fill="#ffb70d"/>
      <path id="Path_2130" data-name="Path 2130" d="M241.833,438.495h-2.226a.372.372,0,0,1-.371-.371V435.9a.372.372,0,0,1,.371-.371h2.226a.372.372,0,0,1,.371.371v2.226A.372.372,0,0,1,241.833,438.495Z" transform="translate(-169.471 -388.642)" fill="#92b620"/>
      <path id="Path_2131" data-name="Path 2131" d="M290.509,438.495h-2.226a.372.372,0,0,1-.371-.371V435.9a.372.372,0,0,1,.371-.371h2.226a.372.372,0,0,1,.371.371v2.226A.372.372,0,0,1,290.509,438.495Z" transform="translate(-212.907 -388.642)" fill="#70b5e8"/>
      <path id="Path_2132" data-name="Path 2132" d="M339.185,438.495h-2.226a.372.372,0,0,1-.371-.371V435.9a.372.372,0,0,1,.371-.371h2.226a.372.372,0,0,1,.371.371v2.226A.372.372,0,0,1,339.185,438.495Z" transform="translate(-256.343 -388.642)" fill="#92b620"/>
      <path id="Path_2133" data-name="Path 2133" d="M387.861,438.495h-2.226a.372.372,0,0,1-.371-.371V435.9a.372.372,0,0,1,.371-.371h2.226a.372.372,0,0,1,.371.371v2.226A.372.372,0,0,1,387.861,438.495Z" transform="translate(-299.779 -388.642)" fill="#efefef"/>
    </g>
  </g>
</svg>
